<?xml version="1.0" encoding="UTF-8" standalone="no"?>
<!DOCTYPE svg PUBLIC "-//W3C//DTD SVG 1.1//EN" "http://www.w3.org/Graphics/SVG/1.1/DTD/svg11.dtd">
<svg width="100%" height="100%" viewBox="0 0 349 464" version="1.1" xmlns="http://www.w3.org/2000/svg" xmlns:xlink="http://www.w3.org/1999/xlink" xml:space="preserve" xmlns:serif="http://www.serif.com/" style="fill-rule:evenodd;clip-rule:evenodd;stroke-linejoin:round;stroke-miterlimit:2;">
    <g transform="matrix(0.979983,0,0,0.994686,-71.2941,-22.8778)">
        <path d="M428.82,30.016C428.82,26.144 425.63,23 421.699,23L79.872,23C75.941,23 72.75,26.144 72.75,30.016L72.75,481.984C72.75,485.856 75.941,489 79.872,489L421.699,489C425.63,489 428.82,485.856 428.82,481.984L428.82,30.016Z" style="fill:rgb(77,77,77);"/>
    </g>
    <g transform="matrix(0.979983,0,0,0.83825,-71.2941,53.6194)">
        <g transform="matrix(1.23986,4.99915e-18,4.31504e-18,1.43308,202.511,-231.326)">
            <g id="Button">
                <path d="M170.23,189.299C170.23,185.113 166.87,181.715 162.731,181.715L134.108,181.715C129.969,181.715 126.61,185.113 126.61,189.299L126.61,218.251C126.61,222.436 129.969,225.835 134.108,225.835L162.731,225.835C166.87,225.835 170.23,222.436 170.23,218.251L170.23,189.299Z" style="fill:white;"/>
            </g>
        </g>
        <g transform="matrix(1.23986,4.99915e-18,4.31504e-18,1.43308,202.511,-154.977)">
            <g id="Button1" serif:id="Button">
                <path d="M170.23,189.299C170.23,185.113 166.87,181.715 162.731,181.715L134.108,181.715C129.969,181.715 126.61,185.113 126.61,189.299L126.61,218.251C126.61,222.436 129.969,225.835 134.108,225.835L162.731,225.835C166.87,225.835 170.23,222.436 170.23,218.251L170.23,189.299Z" style="fill:rgb(169,169,169);"/>
            </g>
        </g>
        <g transform="matrix(1.23986,4.99915e-18,4.31504e-18,1.43308,202.511,-78.6273)">
            <g id="Button2" serif:id="Button">
                <path d="M170.23,189.299C170.23,185.113 166.87,181.715 162.731,181.715L134.108,181.715C129.969,181.715 126.61,185.113 126.61,189.299L126.61,218.251C126.61,222.436 129.969,225.835 134.108,225.835L162.731,225.835C166.87,225.835 170.23,222.436 170.23,218.251L170.23,189.299Z" style="fill:rgb(169,169,169);"/>
            </g>
        </g>
        <g transform="matrix(1.23986,4.99915e-18,4.31504e-18,1.43308,202.511,-2.2777)">
            <g id="Button3" serif:id="Button">
                <path d="M170.23,189.299C170.23,185.113 166.87,181.715 162.731,181.715L134.108,181.715C129.969,181.715 126.61,185.113 126.61,189.299L126.61,218.251C126.61,222.436 129.969,225.835 134.108,225.835L162.731,225.835C166.87,225.835 170.23,222.436 170.23,218.251L170.23,189.299Z" style="fill:rgb(169,169,169);"/>
            </g>
        </g>
        <g transform="matrix(1.23986,4.99915e-18,4.31504e-18,1.43308,202.511,74.0719)">
            <g id="Button4" serif:id="Button">
                <path d="M170.23,189.299C170.23,185.113 166.87,181.715 162.731,181.715L134.108,181.715C129.969,181.715 126.61,185.113 126.61,189.299L126.61,218.251C126.61,222.436 129.969,225.835 134.108,225.835L162.731,225.835C166.87,225.835 170.23,222.436 170.23,218.251L170.23,189.299Z" style="fill:rgb(169,169,169);"/>
            </g>
        </g>
        <g transform="matrix(1.23986,4.99915e-18,4.31504e-18,1.43308,202.511,150.421)">
            <g id="Button5" serif:id="Button">
                <path d="M170.23,189.299C170.23,185.113 166.87,181.715 162.731,181.715L134.108,181.715C129.969,181.715 126.61,185.113 126.61,189.299L126.61,218.251C126.61,222.436 129.969,225.835 134.108,225.835L162.731,225.835C166.87,225.835 170.23,222.436 170.23,218.251L170.23,189.299Z" style="fill:rgb(255,123,54);"/>
            </g>
        </g>
        <g transform="matrix(1.23986,4.99915e-18,4.31504e-18,1.43308,134.143,-231.326)">
            <g id="Button6" serif:id="Button">
                <path d="M170.23,189.299C170.23,185.113 166.87,181.715 162.731,181.715L134.108,181.715C129.969,181.715 126.61,185.113 126.61,189.299L126.61,218.251C126.61,222.436 129.969,225.835 134.108,225.835L162.731,225.835C166.87,225.835 170.23,222.436 170.23,218.251L170.23,189.299Z" style="fill:white;"/>
            </g>
        </g>
        <g transform="matrix(1.23986,4.99915e-18,4.31504e-18,1.43308,134.143,-154.977)">
            <g id="Button7" serif:id="Button">
                <path d="M170.23,189.299C170.23,185.113 166.87,181.715 162.731,181.715L134.108,181.715C129.969,181.715 126.61,185.113 126.61,189.299L126.61,218.251C126.61,222.436 129.969,225.835 134.108,225.835L162.731,225.835C166.87,225.835 170.23,222.436 170.23,218.251L170.23,189.299Z" style="fill:rgb(169,169,169);"/>
            </g>
        </g>
        <g transform="matrix(1.23986,4.99915e-18,4.31504e-18,1.43308,134.143,-78.6273)">
            <g id="Button8" serif:id="Button">
                <path d="M170.23,189.299C170.23,185.113 166.87,181.715 162.731,181.715L134.108,181.715C129.969,181.715 126.61,185.113 126.61,189.299L126.61,218.251C126.61,222.436 129.969,225.835 134.108,225.835L162.731,225.835C166.87,225.835 170.23,222.436 170.23,218.251L170.23,189.299Z" style="fill:white;"/>
            </g>
        </g>
        <g transform="matrix(1.23986,4.99915e-18,4.31504e-18,1.43308,134.143,-2.2777)">
            <g id="Button9" serif:id="Button">
                <path d="M170.23,189.299C170.23,185.113 166.87,181.715 162.731,181.715L134.108,181.715C129.969,181.715 126.61,185.113 126.61,189.299L126.61,218.251C126.61,222.436 129.969,225.835 134.108,225.835L162.731,225.835C166.87,225.835 170.23,222.436 170.23,218.251L170.23,189.299Z" style="fill:white;"/>
            </g>
        </g>
        <g transform="matrix(1.23986,4.99915e-18,4.31504e-18,1.43308,134.143,74.0719)">
            <g id="Button10" serif:id="Button">
                <path d="M170.23,189.299C170.23,185.113 166.87,181.715 162.731,181.715L134.108,181.715C129.969,181.715 126.61,185.113 126.61,189.299L126.61,218.251C126.61,222.436 129.969,225.835 134.108,225.835L162.731,225.835C166.87,225.835 170.23,222.436 170.23,218.251L170.23,189.299Z" style="fill:white;"/>
            </g>
        </g>
        <g transform="matrix(1.23986,4.99915e-18,4.31504e-18,1.43308,134.143,150.421)">
            <g id="Button11" serif:id="Button">
                <path d="M170.23,189.299C170.23,185.113 166.87,181.715 162.731,181.715L134.108,181.715C129.969,181.715 126.61,185.113 126.61,189.299L126.61,218.251C126.61,222.436 129.969,225.835 134.108,225.835L162.731,225.835C166.87,225.835 170.23,222.436 170.23,218.251L170.23,189.299Z" style="fill:rgb(169,169,169);"/>
            </g>
        </g>
        <g transform="matrix(1.23986,4.99915e-18,4.31504e-18,1.43308,65.7743,-231.326)">
            <g id="Button12" serif:id="Button">
                <path d="M170.23,189.299C170.23,185.113 166.87,181.715 162.731,181.715L134.108,181.715C129.969,181.715 126.61,185.113 126.61,189.299L126.61,218.251C126.61,222.436 129.969,225.835 134.108,225.835L162.731,225.835C166.87,225.835 170.23,222.436 170.23,218.251L170.23,189.299Z" style="fill:rgb(169,169,169);"/>
            </g>
        </g>
        <g transform="matrix(1.23986,4.99915e-18,4.31504e-18,1.43308,65.7743,-154.977)">
            <g id="Button13" serif:id="Button">
                <path d="M170.23,189.299C170.23,185.113 166.87,181.715 162.731,181.715L134.108,181.715C129.969,181.715 126.61,185.113 126.61,189.299L126.61,218.251C126.61,222.436 129.969,225.835 134.108,225.835L162.731,225.835C166.87,225.835 170.23,222.436 170.23,218.251L170.23,189.299Z" style="fill:rgb(169,169,169);"/>
            </g>
        </g>
        <g transform="matrix(1.23986,4.99915e-18,4.31504e-18,1.43308,65.7743,-78.6273)">
            <g id="Button14" serif:id="Button">
                <path d="M170.23,189.299C170.23,185.113 166.87,181.715 162.731,181.715L134.108,181.715C129.969,181.715 126.61,185.113 126.61,189.299L126.61,218.251C126.61,222.436 129.969,225.835 134.108,225.835L162.731,225.835C166.87,225.835 170.23,222.436 170.23,218.251L170.23,189.299Z" style="fill:white;"/>
            </g>
        </g>
        <g transform="matrix(1.23986,4.99915e-18,4.31504e-18,1.43308,65.7743,-2.2777)">
            <g id="Button15" serif:id="Button">
                <path d="M170.23,189.299C170.23,185.113 166.87,181.715 162.731,181.715L134.108,181.715C129.969,181.715 126.61,185.113 126.61,189.299L126.61,218.251C126.61,222.436 129.969,225.835 134.108,225.835L162.731,225.835C166.87,225.835 170.23,222.436 170.23,218.251L170.23,189.299Z" style="fill:white;"/>
            </g>
        </g>
        <g transform="matrix(1.23986,4.99915e-18,4.31504e-18,1.43308,65.7743,74.0719)">
            <g id="Button16" serif:id="Button">
                <path d="M170.23,189.299C170.23,185.113 166.87,181.715 162.731,181.715L134.108,181.715C129.969,181.715 126.61,185.113 126.61,189.299L126.61,218.251C126.61,222.436 129.969,225.835 134.108,225.835L162.731,225.835C166.87,225.835 170.23,222.436 170.23,218.251L170.23,189.299Z" style="fill:white;"/>
            </g>
        </g>
        <g transform="matrix(1.23986,4.99915e-18,4.31504e-18,1.43308,65.7743,150.421)">
            <g id="Button17" serif:id="Button">
                <path d="M170.23,189.299C170.23,185.113 166.87,181.715 162.731,181.715L134.108,181.715C129.969,181.715 126.61,185.113 126.61,189.299L126.61,218.251C126.61,222.436 129.969,225.835 134.108,225.835L162.731,225.835C166.87,225.835 170.23,222.436 170.23,218.251L170.23,189.299Z" style="fill:white;"/>
            </g>
        </g>
        <g transform="matrix(1.23986,4.99915e-18,4.31504e-18,1.43308,-2.59431,-231.326)">
            <g id="Button18" serif:id="Button">
                <path d="M170.23,189.299C170.23,185.113 166.87,181.715 162.731,181.715L134.108,181.715C129.969,181.715 126.61,185.113 126.61,189.299L126.61,218.251C126.61,222.436 129.969,225.835 134.108,225.835L162.731,225.835C166.87,225.835 170.23,222.436 170.23,218.251L170.23,189.299Z" style="fill:rgb(169,169,169);"/>
            </g>
        </g>
        <g transform="matrix(1.23986,4.99915e-18,4.31504e-18,1.43308,-2.59431,-154.977)">
            <g id="Button19" serif:id="Button">
                <path d="M170.23,189.299C170.23,185.113 166.87,181.715 162.731,181.715L134.108,181.715C129.969,181.715 126.61,185.113 126.61,189.299L126.61,218.251C126.61,222.436 129.969,225.835 134.108,225.835L162.731,225.835C166.87,225.835 170.23,222.436 170.23,218.251L170.23,189.299Z" style="fill:rgb(169,169,169);"/>
            </g>
        </g>
        <g transform="matrix(1.23986,4.99915e-18,4.31504e-18,1.43308,-2.59431,-78.6273)">
            <g id="Button20" serif:id="Button">
                <path d="M170.23,189.299C170.23,185.113 166.87,181.715 162.731,181.715L134.108,181.715C129.969,181.715 126.61,185.113 126.61,189.299L126.61,218.251C126.61,222.436 129.969,225.835 134.108,225.835L162.731,225.835C166.87,225.835 170.23,222.436 170.23,218.251L170.23,189.299Z" style="fill:white;"/>
            </g>
        </g>
        <g transform="matrix(1.23986,4.99915e-18,4.31504e-18,1.43308,-2.59431,-2.2777)">
            <g id="Button21" serif:id="Button">
                <path d="M170.23,189.299C170.23,185.113 166.87,181.715 162.731,181.715L134.108,181.715C129.969,181.715 126.61,185.113 126.61,189.299L126.61,218.251C126.61,222.436 129.969,225.835 134.108,225.835L162.731,225.835C166.87,225.835 170.23,222.436 170.23,218.251L170.23,189.299Z" style="fill:white;"/>
            </g>
        </g>
        <g transform="matrix(1.23986,4.99915e-18,4.31504e-18,1.43308,-2.59431,74.0719)">
            <g id="Button22" serif:id="Button">
                <path d="M170.23,189.299C170.23,185.113 166.87,181.715 162.731,181.715L134.108,181.715C129.969,181.715 126.61,185.113 126.61,189.299L126.61,218.251C126.61,222.436 129.969,225.835 134.108,225.835L162.731,225.835C166.87,225.835 170.23,222.436 170.23,218.251L170.23,189.299Z" style="fill:white;"/>
            </g>
        </g>
        <g transform="matrix(1.23986,4.99915e-18,4.31504e-18,1.43308,-2.59431,150.421)">
            <g id="Button23" serif:id="Button">
                <path d="M170.23,189.299C170.23,185.113 166.87,181.715 162.731,181.715L134.108,181.715C129.969,181.715 126.61,185.113 126.61,189.299L126.61,218.251C126.61,222.436 129.969,225.835 134.108,225.835L162.731,225.835C166.87,225.835 170.23,222.436 170.23,218.251L170.23,189.299Z" style="fill:white;"/>
            </g>
        </g>
        <g transform="matrix(1.23986,4.99915e-18,4.31504e-18,1.43308,-70.9629,-231.326)">
            <g id="Button24" serif:id="Button">
                <path d="M170.23,189.299C170.23,185.113 166.87,181.715 162.731,181.715L134.108,181.715C129.969,181.715 126.61,185.113 126.61,189.299L126.61,218.251C126.61,222.436 129.969,225.835 134.108,225.835L162.731,225.835C166.87,225.835 170.23,222.436 170.23,218.251L170.23,189.299Z" style="fill:rgb(169,169,169);"/>
            </g>
        </g>
        <g transform="matrix(1.23986,4.99915e-18,4.31504e-18,1.43308,-70.9629,-154.977)">
            <g id="Button25" serif:id="Button">
                <path d="M170.23,189.299C170.23,185.113 166.87,181.715 162.731,181.715L134.108,181.715C129.969,181.715 126.61,185.113 126.61,189.299L126.61,218.251C126.61,222.436 129.969,225.835 134.108,225.835L162.731,225.835C166.87,225.835 170.23,222.436 170.23,218.251L170.23,189.299Z" style="fill:rgb(169,169,169);"/>
            </g>
        </g>
        <g transform="matrix(1.23986,4.99915e-18,4.31504e-18,1.43308,-70.9629,-78.6273)">
            <g id="Button26" serif:id="Button">
                <path d="M170.23,189.299C170.23,185.113 166.87,181.715 162.731,181.715L134.108,181.715C129.969,181.715 126.61,185.113 126.61,189.299L126.61,218.251C126.61,222.436 129.969,225.835 134.108,225.835L162.731,225.835C166.87,225.835 170.23,222.436 170.23,218.251L170.23,189.299Z" style="fill:rgb(169,169,169);"/>
            </g>
        </g>
        <g transform="matrix(1.23986,4.99915e-18,4.31504e-18,1.43308,-70.9629,-2.2777)">
            <g id="Button27" serif:id="Button">
                <path d="M170.23,189.299C170.23,185.113 166.87,181.715 162.731,181.715L134.108,181.715C129.969,181.715 126.61,185.113 126.61,189.299L126.61,218.251C126.61,222.436 129.969,225.835 134.108,225.835L162.731,225.835C166.87,225.835 170.23,222.436 170.23,218.251L170.23,189.299Z" style="fill:rgb(169,169,169);"/>
            </g>
        </g>
        <g transform="matrix(1.23986,4.99915e-18,4.31504e-18,1.43308,-70.9629,74.0719)">
            <g id="Button28" serif:id="Button">
                <path d="M170.23,189.299C170.23,185.113 166.87,181.715 162.731,181.715L134.108,181.715C129.969,181.715 126.61,185.113 126.61,189.299L126.61,218.251C126.61,222.436 129.969,225.835 134.108,225.835L162.731,225.835C166.87,225.835 170.23,222.436 170.23,218.251L170.23,189.299Z" style="fill:rgb(169,169,169);"/>
            </g>
        </g>
        <g transform="matrix(1.23986,4.99915e-18,4.31504e-18,1.43308,-70.9629,150.421)">
            <g id="Button29" serif:id="Button">
                <path d="M170.23,189.299C170.23,185.113 166.87,181.715 162.731,181.715L134.108,181.715C129.969,181.715 126.61,185.113 126.61,189.299L126.61,218.251C126.61,222.436 129.969,225.835 134.108,225.835L162.731,225.835C166.87,225.835 170.23,222.436 170.23,218.251L170.23,189.299Z" style="fill:rgb(169,169,169);"/>
            </g>
        </g>
    </g>
    <g transform="matrix(1.02681,0,0,0.849934,-88.7679,-22.8198)">
        <path d="M412.623,51.507C412.623,47.397 409.861,44.06 406.458,44.06L105.542,44.06C102.139,44.06 99.377,47.397 99.377,51.507L99.377,98.034C99.377,102.144 102.139,105.481 105.542,105.481L406.458,105.481C409.861,105.481 412.623,102.144 412.623,98.034L412.623,51.507Z" style="fill:white;"/>
    </g>
    <g transform="matrix(1,0,0,1,-5.72672,-7.15855)">
        <text x="229.076px" y="57.897px" style="font-family:'SegoeUI', 'Segoe UI', sans-serif;font-size:29.167px;">123+42</text>
    </g>
    <g id="sqrt" transform="matrix(0.85151,0,0,0.728358,-56.7335,85.4384)">
        <g transform="matrix(1.33047,-2.64679e-31,-2.51555e-31,1.55543,97.3705,270.104)">
            <path d="M2.232,11.232L4.847,11.232C4.847,11.232 7.344,17.116 7.344,17.116L10.179,6.232C10.179,6.232 21.768,6.232 21.768,6.232C21.768,6.232 21.768,7.768 21.768,7.768C21.768,7.768 11.367,7.768 11.367,7.768L8.501,18.768C8.501,18.768 6.377,18.768 6.377,18.768C6.377,18.768 3.83,12.768 3.83,12.768L2.232,12.768L2.232,11.232Z" style="fill-rule:nonzero;"/>
        </g>
        <g transform="matrix(1.12991,0,0,1.32096,-169.51,25.524)">
            <text x="250.156px" y="207.277px" style="font-family:'SegoeUI-Semibold', 'Segoe UI', sans-serif;font-weight:600;font-size:20.545px;">x</text>
        </g>
    </g>
    <g id="nthroot" transform="matrix(0.85151,0,0,0.728358,-56.7507,150.253)">
        <g transform="matrix(1.33047,-2.64679e-31,-2.51555e-31,1.55543,97.3705,270.104)">
            <path d="M2.232,11.232L4.847,11.232C4.847,11.232 7.344,17.116 7.344,17.116L10.179,6.232C10.179,6.232 21.768,6.232 21.768,6.232C21.768,6.232 21.768,7.768 21.768,7.768C21.768,7.768 11.367,7.768 11.367,7.768L8.501,18.768C8.501,18.768 6.377,18.768 6.377,18.768C6.377,18.768 3.83,12.768 3.83,12.768L2.232,12.768L2.232,11.232Z" style="fill-rule:nonzero;"/>
        </g>
        <g transform="matrix(1.12991,0,0,1.32096,-169.51,25.524)">
            <text x="250.156px" y="207.277px" style="font-family:'SegoeUI-Semibold', 'Segoe UI', sans-serif;font-weight:600;font-size:20.545px;">x</text>
        </g>
        <g transform="matrix(15.8379,-4.65773e-31,6.06817e-31,16.0818,99.2192,284.995)">
            <path d="M0.195,-0.475L0.195,-0.539L0.047,-0.539L0.047,0.039L0.195,0.039L0.196,-0.231C0.196,-0.269 0.204,-0.308 0.232,-0.348C0.248,-0.372 0.276,-0.394 0.306,-0.394C0.332,-0.394 0.352,-0.389 0.364,-0.373C0.378,-0.355 0.382,-0.326 0.382,-0.285C0.382,-0.285 0.382,0.039 0.382,0.039L0.53,0.039L0.53,-0.306C0.53,-0.384 0.512,-0.444 0.478,-0.486C0.442,-0.529 0.408,-0.541 0.34,-0.541C0.299,-0.541 0.251,-0.53 0.195,-0.475Z" style="fill-rule:nonzero;"/>
        </g>
    </g>
    <g transform="matrix(1,0,0,1,-81.5388,-32.2384)">
        <g id="abs">
            <text x="244.438px" y="207.277px" style="font-family:'SegoeUI-Semibold', 'Segoe UI', sans-serif;font-weight:600;font-size:20.545px;">|x|</text>
        </g>
    </g>
    <g transform="matrix(1,0,0,1,-147.776,-32.2384)">
        <g id="factorial">
            <text x="247.036px" y="207.277px" style="font-family:'SegoeUI-Semibold', 'Segoe UI', sans-serif;font-weight:600;font-size:20.545px;">x!</text>
        </g>
    </g>
    <g transform="matrix(1,0,0,1,-214.402,-32.2384)">
        <g id="squared">
            <g>
                <text x="244.816px" y="207.277px" style="font-family:'SegoeUI-Semibold', 'Segoe UI', sans-serif;font-weight:600;font-size:20.545px;">x</text>
                <g transform="matrix(1.2,0,0,1.2,-51.0217,-42.2888)">
                    <text x="255.108px" y="211.444px" style="font-family:'SegoeUI-Semibold', 'Segoe UI', sans-serif;font-weight:600;font-size:20.545px;">²</text>
                </g>
            </g>
        </g>
    </g>
    <g transform="matrix(0.953349,0,0,1.14581,-203.322,-127.368)">
        <g id="pi">
            <text x="248.561px" y="207.277px" style="font-family:'SegoeUI-Semibold', 'Segoe UI', sans-serif;font-weight:600;font-size:20.545px;">π</text>
        </g>
    </g>
    <g transform="matrix(0.996291,0,0,1.19742,-147.244,-137.81)">
        <g id="e">
            <text x="250.131px" y="207.277px" style="font-family:'SegoeUI-SemiboldItalic', 'Segoe UI', sans-serif;font-weight:600;font-style:italic;font-size:20.545px;">e</text>
        </g>
    </g>
    <g transform="matrix(0.996291,0,0,1.19742,-81.0526,-135.227)">
        <g id="reciprocal">
            <g>
                <g transform="matrix(1.06967,0,0,1.06,-16.9918,-12.4993)">
                    <path d="M247.161,202.442L247.161,195.691C246.967,195.858 246.76,196.015 246.539,196.163C246.319,196.31 246.106,196.442 245.902,196.559C245.698,196.676 245.509,196.775 245.336,196.855C245.162,196.935 245.025,196.992 244.924,197.025L244.924,195.531C245.205,195.43 245.491,195.31 245.782,195.169C246.073,195.029 246.355,194.88 246.63,194.723C246.904,194.566 247.161,194.402 247.402,194.231C247.643,194.061 247.857,193.892 248.044,193.725L248.857,193.725L248.857,202.442L247.161,202.442Z"/>
                </g>
                <text x="252.036px" y="207.277px" style="font-family:'SegoeUI-Semibold', 'Segoe UI', sans-serif;font-weight:600;font-size:20.545px;">⁄</text>
                <g transform="matrix(0.841313,0,0,0.8,40.9497,41.4554)">
                    <text x="258.054px" y="207.277px" style="font-family:'SegoeUI-Semibold', 'Segoe UI', sans-serif;font-weight:600;font-size:20.545px;">x</text>
                </g>
            </g>
        </g>
    </g>
    <g transform="matrix(1,0,0,1,-214.739,32.4988)">
        <g id="power">
            <g>
                <text x="244.89px" y="207.277px" style="font-family:'SegoeUI-Semibold', 'Segoe UI', sans-serif;font-weight:600;font-size:20.545px;">x</text>
                <g transform="matrix(1.1,0,0,1.1,-25.5182,-20.7277)">
                    <text x="255.182px" y="207.277px" style="font-family:'SegoeUI-Semibold', 'Segoe UI', sans-serif;font-weight:600;font-size:20.545px;">ⁿ</text>
                </g>
            </g>
        </g>
    </g>
    <g transform="matrix(1.14482,0,0,1.14482,-252.233,195.124)">
        <g id="x10n">
            <g>
                <g transform="matrix(0.7,0,0,0.7,71.4393,62.1832)">
                    <text x="238.131px" y="207.277px" style="font-family:'SegoeUI-Bold', 'Segoe UI', sans-serif;font-weight:700;font-size:20.545px;">×</text>
                </g>
                <g transform="matrix(0.8,0,0,0.8,49.3722,41.4554)">
                    <text x="246.861px" y="207.277px" style="font-family:'SegoeUI-Semibold', 'Segoe UI', sans-serif;font-weight:600;font-size:20.545px;">1</text>
                </g>
                <g transform="matrix(0.8,0,0,0.8,50.5633,41.4554)">
                    <text x="252.816px" y="207.277px" style="font-family:'SegoeUI-Semibold', 'Segoe UI', sans-serif;font-weight:600;font-size:20.545px;">0</text>
                </g>
                <g transform="matrix(1.1,0,0,1.1,-26.1941,-20.7277)">
                    <text x="261.941px" y="207.277px" style="font-family:'SegoeUI-Semibold', 'Segoe UI', sans-serif;font-weight:600;font-size:20.545px;">ⁿ</text>
                </g>
            </g>
        </g>
    </g>
    <g transform="matrix(0.669844,0,0,0.749704,112.342,-18.3867)">
        <g id="mod">
            <text x="165.385px" y="256.93px" style="font-family:'SegoeUI-Semibold', 'Segoe UI', sans-serif;font-weight:600;font-size:25.276px;">mod</text>
        </g>
    </g>
    <g id="equals" transform="matrix(1.38724,0,0,1.38724,291.126,407.686)">
        <path d="M19,10L5,10L5,8L19,8L19,10ZM19,16L5,16L5,14L19,14L19,16Z" style="fill-rule:nonzero;"/>
    </g>
    <g id="divide" transform="matrix(1.31961,0,0,1.31961,291.939,152.497)">
        <path d="M18.999,12.998L4.999,12.998L4.999,10.998L18.999,10.998L18.999,12.998ZM12,5C13.105,5 14,5.895 14,7C14,8.105 13.105,9 12,9C10.895,9 10,8.105 10,7C10,5.895 10.895,5 12,5ZM12,15C13.105,15 14,15.895 14,17C14,18.105 13.105,19 12,19C10.895,19 10,18.105 10,17C10,15.895 10.895,15 12,15Z" style="fill-rule:nonzero;"/>
    </g>
    <g id="multiply" transform="matrix(35.9505,0,0,35.9505,297.294,245.041)">
        <path d="M0.079,-0.2L0.232,-0.354L0.079,-0.507L0.139,-0.566L0.292,-0.413L0.445,-0.566L0.503,-0.507L0.351,-0.354L0.504,-0.201L0.445,-0.141L0.292,-0.294L0.138,-0.141L0.079,-0.2Z" style="fill-rule:nonzero;"/>
    </g>
    <g id="subtract" transform="matrix(1.35528,0,0,1.35528,291.511,280.072)">
        <path d="M18.999,12.998L4.999,12.998L5,11L18.999,10.998L18.999,12.998Z" style="fill-rule:nonzero;"/>
    </g>
    <g id="add" transform="matrix(1.35528,0,0,1.35528,291.511,344.072)">
        <path d="M18.999,12.998L12.999,12.998L12.999,18.998L10.999,18.998L10.999,12.998L4.999,12.998L4.999,10.998L10.999,10.998L10.999,4.998L12.999,4.998L12.999,10.998L18.999,10.998L18.999,12.998Z" style="fill-rule:nonzero;"/>
    </g>
    <g id="plusminus" transform="matrix(0.851158,0,0,0.851158,77.2782,213.961)">
        <g transform="matrix(26.25,0,0,29.1667,172.239,255.666)">
            <path d="M0.391,-0.244L0.588,-0.244L0.588,-0.339L0.391,-0.339C0.391,-0.339 0.391,-0.535 0.391,-0.535L0.294,-0.535L0.294,-0.339C0.294,-0.339 0.097,-0.339 0.097,-0.339L0.097,-0.244L0.294,-0.244C0.294,-0.244 0.294,-0.048 0.294,-0.048L0.391,-0.048L0.391,-0.244Z" style="fill-rule:nonzero;"/>
        </g>
        <g transform="matrix(25.375,0,3.71928,29.1667,192.381,256.93)">
            <path d="M-0.073,0.014L0.363,-0.714L0.258,-0.714L-0.179,0.014L-0.073,0.014Z" style="fill-rule:nonzero;"/>
        </g>
        <g transform="matrix(20.4167,0,0,29.1667,197.275,255.666)">
            <path d="M0.093,-0.244L0.593,-0.244L0.593,-0.339L0.093,-0.339L0.093,-0.244Z" style="fill-rule:nonzero;"/>
        </g>
    </g>
    <g transform="matrix(1.43781,0,0,1.43781,-101.793,64.6417)">
        <g id="comma">
            <path d="M189.889,260.006C190.411,259.579 190.852,259.14 191.213,258.689C191.574,258.238 191.754,257.813 191.754,257.414C191.754,257.187 191.707,257.023 191.612,256.923C191.517,256.823 191.346,256.717 191.099,256.603C190.719,256.441 190.468,256.27 190.344,256.09C190.221,255.91 190.159,255.658 190.159,255.335C190.159,254.974 190.273,254.659 190.501,254.388C190.729,254.118 191.085,253.982 191.569,253.982C192.101,253.982 192.528,254.17 192.851,254.545C193.174,254.92 193.335,255.478 193.335,256.218C193.335,256.74 193.259,257.222 193.107,257.664C192.955,258.105 192.754,258.513 192.502,258.888C192.25,259.263 191.958,259.612 191.626,259.935C191.294,260.258 190.942,260.562 190.572,260.847L189.889,260.006Z"/>
        </g>
    </g>
    <g transform="matrix(0.989099,0,0,0.989099,-82.8906,180.296)">
        <g id="_0" serif:id="0">
            <text x="183.879px" y="256.93px" style="font-family:'SegoeUI', 'Segoe UI', sans-serif;font-size:29.167px;">0</text>
        </g>
    </g>
    <g transform="matrix(0.989099,0,0,0.989099,-82.806,116.528)">
        <g id="_1" serif:id="1">
            <text x="183.879px" y="256.93px" style="font-family:'SegoeUI', 'Segoe UI', sans-serif;font-size:29.167px;">1</text>
        </g>
    </g>
    <g transform="matrix(0.989099,0,0,0.989099,-15.8695,116.632)">
        <g id="_2" serif:id="2">
            <text x="183.879px" y="256.93px" style="font-family:'SegoeUI', 'Segoe UI', sans-serif;font-size:29.167px;">2</text>
        </g>
    </g>
    <g transform="matrix(0.989099,0,0,0.989099,51.3207,116.632)">
        <g id="_3" serif:id="3">
            <text x="183.879px" y="256.93px" style="font-family:'SegoeUI', 'Segoe UI', sans-serif;font-size:29.167px;">3</text>
        </g>
    </g>
    <g transform="matrix(0.989099,0,0,0.989099,-82.4821,52.2958)">
        <g id="_4" serif:id="4">
            <text x="183.879px" y="256.93px" style="font-family:'SegoeUI', 'Segoe UI', sans-serif;font-size:29.167px;">4</text>
        </g>
    </g>
    <g transform="matrix(0.989099,0,0,0.989099,-16.0808,52.6324)">
        <g id="_5" serif:id="5">
            <text x="183.879px" y="256.93px" style="font-family:'SegoeUI', 'Segoe UI', sans-serif;font-size:29.167px;">5</text>
        </g>
    </g>
    <g transform="matrix(0.989099,0,0,0.989099,50.9192,52.2958)">
        <g id="_6" serif:id="6">
            <text x="183.879px" y="256.93px" style="font-family:'SegoeUI', 'Segoe UI', sans-serif;font-size:29.167px;">6</text>
        </g>
    </g>
    <g transform="matrix(0.989099,0,0,0.989099,-82.9047,-11.6971)">
        <g id="_7" serif:id="7">
            <text x="183.879px" y="256.93px" style="font-family:'SegoeUI', 'Segoe UI', sans-serif;font-size:29.167px;">7</text>
        </g>
    </g>
    <g transform="matrix(0.989099,0,0,0.989099,-15.9047,-11.3676)">
        <g id="_8" serif:id="8">
            <text x="183.879px" y="256.93px" style="font-family:'SegoeUI', 'Segoe UI', sans-serif;font-size:29.167px;">8</text>
        </g>
    </g>
    <g transform="matrix(0.989099,0,0,0.989099,51.1657,-11.7042)">
        <g id="_9" serif:id="9">
            <text x="183.879px" y="256.93px" style="font-family:'SegoeUI', 'Segoe UI', sans-serif;font-size:29.167px;">9</text>
        </g>
    </g>
    <g id="Del" transform="matrix(0.957597,0,0,0.957597,-63.2891,-18.7865)">
        <path d="M381.282,139.979C380.734,139.979 380.215,139.729 379.873,139.3C377.969,136.906 371.684,129.006 371.684,129.006C371.482,128.751 371.482,128.39 371.684,128.135C371.684,128.135 377.969,120.235 379.873,117.841C380.215,117.412 380.734,117.162 381.282,117.162C385.037,117.162 399.689,117.162 399.689,117.162C400.614,117.162 401.365,117.913 401.365,118.838L401.365,138.303C401.365,139.228 400.614,139.979 399.689,139.979L381.282,139.979ZM382.437,133.53L387.397,128.571L382.453,123.627L384.374,121.706L389.318,126.65L394.246,121.721L396.135,123.627L391.223,128.555L396.167,133.499L394.246,135.42L389.302,130.476L384.342,135.435L382.437,133.53Z" style="fill:rgb(244,93,93);"/>
    </g>
    <g transform="matrix(0.824776,0,0,0.824776,229.518,115.55)">
        <g id="Clear">
            <text x="0px" y="0px" style="font-family:'Arial-BoldMT', 'Arial', sans-serif;font-weight:700;font-size:38px;fill:rgb(244,93,93);">C</text>
        </g>
    </g>
</svg>
